HIERARCHY
ROOT hip
{
	OFFSET 0.000000 0.000000 0.000000
	CHANNELS 6 Xposition Yposition Zposition Xrotation Zrotation Yrotation 
	JOINT abdomen
	{
		OFFSET 0.000000 3.422050 0.000000
		CHANNELS 3 Xrotation Zrotation Yrotation 
		JOINT chest
		{
			OFFSET 0.000000 8.486693 -0.6844110
			CHANNELS 3 Xrotation Zrotation Yrotation 
			JOINT neck
			{
				OFFSET 0.000000 10.26616 -0.2737640
				CHANNELS 3 Xrotation Zrotation Yrotation 
				JOINT head
				{
					OFFSET 0.000000 3.148285 0.000000
					CHANNELS 3 Xrotation Zrotation Yrotation 
					End Site
					{
						OFFSET 0.000000 3.148289 0.000000
					}
				}
			}
			JOINT lCollar
			{
				OFFSET 3.422053 6.707223 -0.8212930
				CHANNELS 3 Yrotation Zrotation Xrotation 
				JOINT lShldr
				{
					OFFSET 3.285171 0.000000 0.000000
					CHANNELS 3 Zrotation Yrotation Xrotation 
					JOINT lForeArm
					{
						OFFSET 10.12928 0.000000 0.000000
						CHANNELS 3 Yrotation Zrotation Xrotation 
						JOINT lHand
						{
							OFFSET 8.486692 0.000000 0.000000
							CHANNELS 3 Zrotation Yrotation Xrotation 
							End Site
							{
								OFFSET 4.106464 0.000000 0.000000
							}
						}
					}
				}
			}
			JOINT rCollar
			{
				OFFSET -3.558935 6.707223 -0.8212930
				CHANNELS 3 Yrotation Zrotation Xrotation 
				JOINT rShldr
				{
					OFFSET -3.148289 0.000000 0.000000
					CHANNELS 3 Zrotation Yrotation Xrotation 
					JOINT rForeArm
					{
						OFFSET -10.26616 0.000000 0.000000
						CHANNELS 3 Yrotation Zrotation Xrotation 
						JOINT rHand
						{
							OFFSET -8.349810 0.000000 0.000000
							CHANNELS 3 Zrotation Yrotation Xrotation 
							End Site
							{
								OFFSET -4.106464 0.000000 0.000000
							}
						}
					}
				}
			}
		}
	}
	JOINT lThigh
	{
		OFFSET 5.338403 -1.642589 1.368821
		CHANNELS 3 Xrotation Zrotation Yrotation 
		JOINT lShin
		{
			OFFSET -2.053232 -20.12167 0.000000
			CHANNELS 3 Xrotation Zrotation Yrotation 
			JOINT lFoot
			{
				OFFSET 0.000000 -19.30038 -1.231939
				CHANNELS 3 Xrotation Yrotation Zrotation 
				End Site
				{
					OFFSET 0.000000 -2.463878 4.653993
				}
			}
		}
	}
	JOINT rThigh
	{
		OFFSET -5.338403 -1.642589 1.368821
		CHANNELS 3 Xrotation Zrotation Yrotation 
		JOINT rShin
		{
			OFFSET 2.053232 -20.12167 0.000000
			CHANNELS 3 Xrotation Zrotation Yrotation 
			JOINT rFoot
			{
				OFFSET 0.000000 -19.30038 -1.231939
				CHANNELS 3 Xrotation Yrotation Zrotation 
				End Site
				{
					OFFSET 0.000000 -2.463878 4.653993
				}
			}
		}
	}
}
MOTION
Frames:	9
Frame Time:	0.03333333
0.000000 43.52852 0.000000 0.000000 0.000000 0.000000 0.000000 0.000000 0.000000 0.000000 0.000000 0.000000 0.000000 0.000000 0.000000 0.000000 0.000000 0.000000 0.000000 0.000000 0.000000 0.000000 0.000000 0.000000 0.000000 0.000000 0.000000 0.000000 0.000000 0.000000 0.000000 0.000000 0.000000 0.000000 0.000000 0.000000 0.000000 0.000000 0.000000 0.000000 0.000000 0.000000 0.000000 0.000000 0.000000 0.000000 0.000000 0.000000 0.000000 0.000000 0.000000 0.000000 0.000000 0.000000 0.000000 0.000000 0.000000 0.000000 0.000000 0.000000 
11.00000 37.00000 0.000000 1.000000 0.000000 0.000000 1.000000 0.000000 0.000000 1.000000 0.000000 0.000000 1.000000 0.000000 0.000000 1.000000 0.000000 0.000000 0.000000 0.000000 1.000000 -45.00000 0.000000 -23.00000 -90.00000 14.00000 0.000000 0.000000 0.000000 1.000000 0.000000 0.000000 1.000000 45.00000 0.000000 -23.00000 90.00000 -14.00000 0.000000 0.000000 0.000000 1.000000 -25.00000 20.00000 13.00000 47.00000 0.000000 0.000000 -20.00000 0.000000 0.000000 -25.00000 -20.00000 -13.00000 47.00000 0.000000 0.000000 -20.00000 0.000000 0.000000 
11.00000 37.00000 0.3333333 1.000000 0.000000 -1.666667 1.000000 0.000000 1.666667 1.000000 0.000000 0.000000 1.000000 0.000000 0.000000 1.000000 0.000000 0.000000 0.000000 0.000000 1.000000 -46.83333 -3.111111 -21.66667 -91.27778 14.00000 0.000000 0.000000 0.000000 1.000000 0.000000 0.000000 1.000000 46.83333 3.111111 -21.66667 91.27778 -14.00000 0.000000 0.000000 0.000000 1.000000 -28.12500 20.00000 13.00000 53.87500 0.000000 0.000000 -20.00000 0.000000 0.000000 -25.00000 -20.00000 -13.00000 47.00000 0.000000 0.000000 -20.00000 0.000000 0.000000 
11.00000 37.00000 0.6666667 1.000000 0.000000 -3.333333 1.000000 0.000000 3.333333 1.000000 0.000000 0.000000 1.000000 0.000000 0.000000 1.000000 0.000000 0.000000 0.000000 0.000000 1.000000 -48.66667 -6.222222 -20.33333 -92.55556 14.00000 0.000000 0.000000 0.000000 1.000000 0.000000 0.000000 1.000000 48.66667 6.222222 -20.33333 92.55556 -14.00000 0.000000 0.000000 0.000000 1.000000 -31.25000 20.00000 13.00000 60.75000 0.000000 0.000000 -20.00000 0.000000 0.000000 -25.00000 -20.00000 -13.00000 47.00000 0.000000 0.000000 -20.00000 0.000000 0.000000 
11.00000 37.00000 1.000000 1.000000 0.000000 -5.000000 1.000000 0.000000 5.000000 1.000000 0.000000 0.000000 1.000000 0.000000 0.000000 1.000000 0.000000 0.000000 0.000000 0.000000 1.000000 -50.50000 -9.333333 -19.00000 -93.83334 14.00000 0.000000 0.000000 0.000000 1.000000 0.000000 0.000000 1.000000 50.50000 9.333333 -19.00000 93.83334 -14.00000 0.000000 0.000000 0.000000 1.000000 -34.37500 20.00000 13.00000 67.62500 0.000000 0.000000 -20.00000 0.000000 0.000000 -25.00000 -20.00000 -13.00000 47.00000 0.000000 0.000000 -20.00000 0.000000 0.000000 
11.00000 37.00000 1.333333 1.000000 0.000000 -6.666667 1.000000 0.000000 6.666667 1.000000 0.000000 0.000000 1.000000 0.000000 0.000000 1.000000 0.000000 0.000000 0.000000 0.000000 1.000000 -52.33333 -12.44444 -17.66667 -95.11111 14.00000 0.000000 0.000000 0.000000 1.000000 0.000000 0.000000 1.000000 52.33333 12.44444 -17.66667 95.11111 -14.00000 0.000000 0.000000 0.000000 1.000000 -37.50000 20.00000 13.00000 74.50000 0.000000 0.000000 -20.00000 0.000000 0.000000 -25.00000 -20.00000 -13.00000 47.00000 0.000000 0.000000 -20.00000 0.000000 0.000000 
11.00000 37.00000 1.666667 1.000000 0.000000 -8.333333 1.000000 0.000000 8.333333 1.000000 0.000000 0.000000 1.000000 0.000000 0.000000 1.000000 0.000000 0.000000 0.000000 0.000000 1.000000 -54.16667 -15.55556 -16.33333 -96.38889 14.00000 0.000000 0.000000 0.000000 1.000000 0.000000 0.000000 1.000000 54.16667 15.55556 -16.33333 96.38889 -14.00000 0.000000 0.000000 0.000000 1.000000 -40.62500 20.00000 13.00000 81.37500 0.000000 0.000000 -20.00000 0.000000 0.000000 -25.00000 -20.00000 -13.00000 47.00000 0.000000 0.000000 -20.00000 0.000000 0.000000 
11.00000 37.00000 2.000000 1.000000 0.000000 -10.00000 1.000000 0.000000 10.00000 1.000000 0.000000 0.000000 1.000000 0.000000 0.000000 1.000000 0.000000 0.000000 0.000000 0.000000 1.000000 -56.00000 -18.66667 -15.00000 -97.66666 14.00000 0.000000 0.000000 0.000000 1.000000 0.000000 0.000000 1.000000 56.00000 18.66667 -15.00000 97.66666 -14.00000 0.000000 0.000000 0.000000 1.000000 -43.75000 20.00000 13.00000 88.25000 0.000000 0.000000 -20.00000 0.000000 0.000000 -25.00000 -20.00000 -13.00000 47.00000 0.000000 0.000000 -20.00000 0.000000 0.000000 
11.00000 37.00000 2.333333 1.000000 0.000000 -11.66667 1.000000 0.000000 11.66667 1.000000 0.000000 0.000000 1.000000 0.000000 0.000000 1.000000 0.000000 0.000000 0.000000 0.000000 1.000000 -57.83333 -21.77778 -13.66667 -98.94444 14.00000 0.000000 0.000000 0.000000 1.000000 0.000000 0.000000 1.000000 57.83333 21.77778 -13.66667 98.94444 -14.00000 0.000000 0.000000 0.000000 1.000000 -46.87500 20.00000 13.00000 95.12500 0.000000 0.000000 -20.00000 0.000000 0.000000 -25.00000 -20.00000 -13.00000 47.00000 0.000000 0.000000 -20.00000 0.000000 0.000000 
